<svg width="164" height="164" viewBox="0 0 164 164" fill="none" xmlns="http://www.w3.org/2000/svg">
<mask id="mask0_29_2881" style="mask-type:alpha" maskUnits="userSpaceOnUse" x="0" y="0" width="164" height="164">
<rect width="164" height="164" fill="white"/>
</mask>
<g mask="url(#mask0_29_2881)">
<path d="M86.6208 143.14C120.625 143.14 148.191 115.574 148.191 81.57C148.191 47.5658 120.625 20 86.6208 20C52.6166 20 25.0508 47.5658 25.0508 81.57C25.0508 115.574 52.6166 143.14 86.6208 143.14Z" fill="url(#paint0_linear_29_2881)"/>
<path d="M85.011 128.28C111.918 128.28 133.731 106.467 133.731 79.56C133.731 52.6527 111.918 30.84 85.011 30.84C58.1037 30.84 36.291 52.6527 36.291 79.56C36.291 106.467 58.1037 128.28 85.011 128.28Z" fill="url(#paint1_linear_29_2881)"/>
<path d="M76.36 27.8H15V85.2H76.36V27.8Z" fill="#181B21"/>
<path d="M27.9698 34.79H20.3398V41.02" stroke="#4060F8" stroke-width="0.5" stroke-miterlimit="10" stroke-linecap="round"/>
<path d="M61.7695 34.79H69.3995V41.02" stroke="#4060F8" stroke-width="0.5" stroke-miterlimit="10" stroke-linecap="round"/>
<path d="M27.9698 79.76H20.3398V73.53" stroke="#4060F8" stroke-width="0.5" stroke-miterlimit="10" stroke-linecap="round"/>
<path d="M61.7695 79.76H69.3995V73.53" stroke="#4060F8" stroke-width="0.5" stroke-miterlimit="10" stroke-linecap="round"/>
<path d="M56.1303 68.57C46.6703 66.97 42.0103 59.47 41.6003 52.14C41.4903 50.13 43.0303 48.41 45.0403 48.3C47.0503 48.19 48.7703 49.73 48.8803 51.74C48.9603 53.19 49.7303 59.88 56.9903 61.32" stroke="#7F7F7F" stroke-width="1.29" stroke-linecap="round" stroke-linejoin="round"/>
<path d="M45.1304 51.87C45.4304 57.24 48.7504 63.89 56.9804 64.87" stroke="#7F7F7F" stroke-width="1.29" stroke-linecap="round" stroke-linejoin="round"/>
<path d="M57.0002 56.98C54.6402 56.49 53.0102 54.1 53.0702 52.21C53.0702 48.09 49.7302 44.76 45.6202 44.76C41.5002 44.76 38.1702 48.1 38.1702 52.21V55.83C38.2802 59.73 37.2902 61.53 34.2402 62.72" stroke="#7F7F7F" stroke-width="1.29" stroke-linecap="round" stroke-linejoin="round"/>
<path d="M34.2305 58.24V52C34.2305 45.71 39.3305 40.62 45.6105 40.62C51.8905 40.62 56.9905 45.72 56.9905 52V53.05" stroke="#7F7F7F" stroke-width="1.29" stroke-linecap="round" stroke-linejoin="round"/>
<path d="M41.3704 61.88C40.4104 63.53 37.8304 66.31 34.6104 67.13" stroke="#7F7F7F" stroke-width="1.29" stroke-linecap="round" stroke-linejoin="round"/>
<path d="M54.0705 71.83C46.7105 70.15 44.9905 67.13 43.6705 66.76C42.2005 66.35 40.4805 69.21 36.4805 71" stroke="#7F7F7F" stroke-width="1.29" stroke-linecap="round" stroke-linejoin="round"/>
<path d="M50.4504 74.51C46.2704 73.75 45.0104 72.12 43.7104 71.58C42.6004 71.11 41.4304 72.6 39.4004 73.74" stroke="#7F7F7F" stroke-width="1.29" stroke-linecap="round" stroke-linejoin="round"/>
<path d="M56.1186 68.92C46.6586 67.32 41.9986 59.82 41.5886 52.49C41.4786 50.48 43.0186 48.76 45.0286 48.65C47.0386 48.54 48.7586 50.08 48.8686 52.09C48.9486 53.54 49.7186 60.23 56.9786 61.67" stroke="#F0004F" stroke-width="1.29" stroke-linecap="round" stroke-linejoin="round"/>
<path d="M45.1187 52.22C45.4187 57.59 48.7387 64.24 56.9687 65.22" stroke="#F0004F" stroke-width="1.29" stroke-linecap="round" stroke-linejoin="round"/>
<path d="M56.9788 57.33C54.6188 56.84 52.9888 54.45 53.0488 52.56C53.0488 48.44 49.7087 45.11 45.5987 45.11C41.4787 45.11 38.1488 48.45 38.1488 52.56V56.18C38.2588 60.08 37.2687 61.88 34.2188 63.07" stroke="#F0004F" stroke-width="1.29" stroke-linecap="round" stroke-linejoin="round"/>
<path d="M34.2188 58.58V52.34C34.2188 46.05 39.3187 40.96 45.5987 40.96C51.8787 40.96 56.9788 46.06 56.9788 52.34V53.39" stroke="#F0004F" stroke-width="1.29" stroke-linecap="round" stroke-linejoin="round"/>
<path d="M41.3586 62.23C40.3986 63.88 37.8186 66.66 34.5986 67.48" stroke="#F0004F" stroke-width="1.29" stroke-linecap="round" stroke-linejoin="round"/>
<path d="M54.049 72.18C46.689 70.5 44.969 67.48 43.649 67.11C42.179 66.7 40.459 69.56 36.459 71.35" stroke="#F0004F" stroke-width="1.29" stroke-linecap="round" stroke-linejoin="round"/>
<path d="M50.4387 74.86C46.2587 74.1 44.9987 72.47 43.6987 71.93C42.5887 71.46 41.4187 72.95 39.3887 74.09" stroke="#F0004F" stroke-width="1.29" stroke-linecap="round" stroke-linejoin="round"/>
<path d="M59.2417 63.49H31.0117" stroke="#0B0D0F" stroke-width="1.29" stroke-miterlimit="10" stroke-linecap="round"/>
<path d="M101.121 98.26H94.1406V103.96" stroke="#2F3237" stroke-width="0.59" stroke-linecap="round" stroke-linejoin="round"/>
<path d="M132.082 98.26H139.072V103.96" stroke="#2F3237" stroke-width="0.59" stroke-linecap="round" stroke-linejoin="round"/>
<path d="M101.121 139.44H94.1406V133.73" stroke="#2F3237" stroke-width="0.59" stroke-linecap="round" stroke-linejoin="round"/>
<path d="M132.082 139.44H139.072V133.73" stroke="#2F3237" stroke-width="0.59" stroke-linecap="round" stroke-linejoin="round"/>
<path d="M83.9922 56.5H118.102V96.27" stroke="#0B0D0F" stroke-width="0.47" stroke-miterlimit="10" stroke-linecap="round"/>
<path d="M68.0195 90.07V118.69H90.3695" stroke="#0B0D0F" stroke-width="0.61" stroke-miterlimit="10" stroke-linecap="round"/>
<path d="M69.3992 123.76C74.3422 123.76 78.3492 119.753 78.3492 114.81C78.3492 109.867 74.3422 105.86 69.3992 105.86C64.4563 105.86 60.4492 109.867 60.4492 114.81C60.4492 119.753 64.4563 123.76 69.3992 123.76Z" fill="#0B0D0F" stroke="#4060F8" stroke-width="0.5" stroke-miterlimit="10" stroke-linecap="round"/>
<path d="M98.5606 59.42C100.173 59.42 101.481 58.1127 101.481 56.5C101.481 54.8873 100.173 53.58 98.5606 53.58C96.948 53.58 95.6406 54.8873 95.6406 56.5C95.6406 58.1127 96.948 59.42 98.5606 59.42Z" fill="#4060F8"/>
<path d="M118.102 136.15C127.778 136.15 135.622 128.306 135.622 118.63C135.622 108.954 127.778 101.11 118.102 101.11C108.426 101.11 100.582 108.954 100.582 118.63C100.582 128.306 108.426 136.15 118.102 136.15Z" fill="#0B0D0F" stroke="#4060F8" stroke-width="0.32" stroke-miterlimit="10" stroke-linecap="round"/>
<path d="M118.1 130.73C124.783 130.73 130.2 125.313 130.2 118.63C130.2 111.947 124.783 106.53 118.1 106.53C111.417 106.53 106 111.947 106 118.63C106 125.313 111.417 130.73 118.1 130.73Z" fill="#4060F8"/>
<path d="M117.602 111.59C120.792 111.59 123.372 114.17 123.372 117.36C123.372 120.55 120.792 123.13 117.602 123.13C114.412 123.13 111.832 120.55 111.832 117.36C111.832 114.17 114.412 111.59 117.602 111.59V111.59Z" stroke="white" stroke-width="0.41" stroke-miterlimit="10" stroke-linecap="round"/>
<path d="M125.282 125.03L121.752 121.5" stroke="white" stroke-width="0.41" stroke-miterlimit="10" stroke-linecap="round"/>
<path d="M120.082 119.77C117.952 119.41 116.902 117.72 116.812 116.07C116.782 115.62 117.132 115.23 117.582 115.2C118.032 115.17 118.422 115.52 118.452 115.97C118.472 116.3 118.642 117.8 120.282 118.13" stroke="white" stroke-width="0.41" stroke-miterlimit="10" stroke-linecap="round"/>
<path d="M117.602 116.01C117.672 117.22 118.412 118.72 120.272 118.94" stroke="white" stroke-width="0.41" stroke-miterlimit="10" stroke-linecap="round"/>
<path d="M120.272 117.16C119.742 117.05 119.372 116.51 119.392 116.09C119.392 115.16 118.642 114.41 117.712 114.41C116.782 114.41 116.032 115.16 116.032 116.09V116.91C116.062 117.79 115.832 118.19 115.142 118.46" stroke="white" stroke-width="0.41" stroke-miterlimit="10" stroke-linecap="round"/>
<path d="M115.142 117.44V116.04C115.142 114.62 116.292 113.48 117.702 113.48C119.112 113.48 120.262 114.63 120.262 116.04V116.28" stroke="white" stroke-width="0.41" stroke-miterlimit="10" stroke-linecap="round"/>
<path d="M116.752 118.27C116.532 118.64 115.952 119.27 115.232 119.45" stroke="white" stroke-width="0.41" stroke-miterlimit="10" stroke-linecap="round"/>
<path d="M119.612 120.51C117.952 120.13 117.572 119.45 117.272 119.37C116.942 119.28 116.552 119.92 115.652 120.32" stroke="white" stroke-width="0.41" stroke-miterlimit="10" stroke-linecap="round"/>
<path d="M118.802 121.11C117.862 120.94 117.572 120.57 117.282 120.45C117.032 120.35 116.772 120.68 116.312 120.94" stroke="white" stroke-width="0.41" stroke-miterlimit="10" stroke-linecap="round"/>
<path d="M125.01 49.58H111.18V63.41H125.01V49.58Z" fill="#F0004F"/>
</g>
<defs>
<linearGradient id="paint0_linear_29_2881" x1="47.7408" y1="18.57" x2="112.421" y2="123.38" gradientUnits="userSpaceOnUse">
<stop stop-color="#2F3237"/>
<stop offset="0.19" stop-color="#2F3237" stop-opacity="0.65"/>
<stop offset="0.46" stop-color="#2F3237" stop-opacity="0.29"/>
<stop offset="0.73" stop-color="#2F3237" stop-opacity="0.07"/>
<stop offset="1" stop-color="#2F3237" stop-opacity="0"/>
</linearGradient>
<linearGradient id="paint1_linear_29_2881" x1="115.771" y1="129.4" x2="64.591" y2="46.47" gradientUnits="userSpaceOnUse">
<stop stop-color="#2F3237"/>
<stop offset="0.19" stop-color="#2F3237" stop-opacity="0.65"/>
<stop offset="0.46" stop-color="#2F3237" stop-opacity="0.29"/>
<stop offset="0.73" stop-color="#2F3237" stop-opacity="0.07"/>
<stop offset="1" stop-color="#2F3237" stop-opacity="0"/>
</linearGradient>
</defs>
</svg>
