<svg width="180" height="140" viewBox="0 0 180 140" fill="none" xmlns="http://www.w3.org/2000/svg">
<mask id="mask0_2118_2030" style="mask-type:alpha" maskUnits="userSpaceOnUse" x="0" y="0" width="180" height="140">
<rect width="180" height="140" fill="white"/>
</mask>
<g mask="url(#mask0_2118_2030)">
<path d="M83.8583 133C116.365 133 142.717 106.648 142.717 74.1418C142.717 41.6352 116.365 15.2835 83.8583 15.2835C51.3517 15.2835 25 41.6352 25 74.1418C25 106.648 51.3517 133 83.8583 133Z" fill="url(#paint0_linear_2118_2030)"/>
<path d="M128.81 129.533C139.699 129.533 148.526 120.706 148.526 109.817C148.526 98.9278 139.699 90.1006 128.81 90.1006C117.921 90.1006 109.094 98.9278 109.094 109.817C109.094 120.706 117.921 129.533 128.81 129.533Z" fill="#0B0D0F" stroke="#F0004F" stroke-width="1.24434" stroke-miterlimit="10" stroke-linecap="round"/>
<path d="M48.1692 129.533C59.0581 129.533 67.8853 120.706 67.8853 109.817C67.8853 98.9278 59.0581 90.1006 48.1692 90.1006C37.2803 90.1006 28.4531 98.9278 28.4531 109.817C28.4531 120.706 37.2803 129.533 48.1692 129.533Z" fill="#4060F8"/>
<path d="M88.4943 65.9027C105.588 65.9027 119.446 52.0453 119.446 34.9513C119.446 17.8574 105.588 4.00001 88.4943 4.00001C71.4004 4.00001 57.543 17.8574 57.543 34.9513C57.543 52.0453 71.4004 65.9027 88.4943 65.9027Z" fill="#714AE0"/>
<path d="M63.0533 67.5094L52.0234 84.326" stroke="white" stroke-width="0.616127" stroke-miterlimit="10" stroke-linecap="round"/>
<path d="M116.27 68.1376L124.859 84.7247" stroke="white" stroke-width="0.616127" stroke-miterlimit="10" stroke-linecap="round"/>
<path d="M74.7148 109.817H102.561" stroke="white" stroke-width="0.616127" stroke-miterlimit="10" stroke-linecap="round"/>
<path d="M86.1197 39.4212V35.4708C86.1197 34.6251 86.7479 33.9365 87.5815 33.8157C91.4595 33.2479 93.7548 31.1579 93.7548 27.896V27.2799C93.7548 24.3201 91.7011 22.3992 88.6084 22.3992C85.8539 22.3992 84.0176 23.861 83.0511 25.9993C82.6887 26.8088 81.7585 27.2074 80.9249 26.8933H80.8766C79.9584 26.5309 79.5356 25.4799 79.9463 24.5859C81.3477 21.5898 84.1143 19.2219 88.7292 19.2219C94.0931 19.2219 97.4878 22.4475 97.4878 27.4611C97.4878 32.4747 94.1414 35.0721 90.6863 36.099C89.9735 36.3164 89.4661 36.9567 89.4661 37.7057V39.4212C89.4661 40.3515 88.7171 41.1005 87.7869 41.1005C86.8566 41.1005 86.1076 40.3515 86.1076 39.4212H86.1197ZM85.1653 48.1678V47.6C85.1653 46.0778 85.9989 45.0751 87.8231 45.0751C89.6473 45.0751 90.4809 46.0778 90.4809 47.6V48.1678C90.4809 49.69 89.6473 50.6927 87.8231 50.6927C85.9989 50.6927 85.1653 49.69 85.1653 48.1678Z" fill="white"/>
<path d="M123.851 102.29H134.856C138.384 102.29 139.266 103.172 139.266 106.688V112.958C139.266 116.485 138.384 117.355 134.868 117.355H123.851C120.335 117.355 119.453 116.485 119.453 112.97V106.688C119.453 103.172 120.335 102.29 123.851 102.29V102.29Z" stroke="#F0004F" stroke-width="0.906069" stroke-miterlimit="10"/>
<path d="M138.889 104.405H119.801" stroke="#F0004F" stroke-width="0.906069" stroke-miterlimit="10"/>
<path d="M121.402 103.486H123.13" stroke="#F0004F" stroke-width="0.906069" stroke-miterlimit="10"/>
<path d="M124.821 106.579H122.188C121.754 106.579 121.402 106.931 121.402 107.364V113.816C121.402 114.249 121.754 114.601 122.188 114.601H124.821C125.255 114.601 125.606 114.249 125.606 113.816V107.364C125.606 106.931 125.255 106.579 124.821 106.579Z" stroke="#F0004F" stroke-width="0.906069" stroke-miterlimit="10"/>
<path d="M136.61 106.507H133.977C133.543 106.507 133.191 106.858 133.191 107.292V113.743C133.191 114.177 133.543 114.528 133.977 114.528H136.61C137.044 114.528 137.396 114.177 137.396 113.743V107.292C137.396 106.858 137.044 106.507 136.61 106.507Z" stroke="#F0004F" stroke-width="0.906069" stroke-miterlimit="10"/>
<path d="M131.231 111.46H127.679C127.399 111.46 127.172 111.687 127.172 111.967V114.093C127.172 114.374 127.399 114.601 127.679 114.601H131.231C131.511 114.601 131.738 114.374 131.738 114.093V111.967C131.738 111.687 131.511 111.46 131.231 111.46Z" stroke="#F0004F" stroke-width="0.906069" stroke-miterlimit="10"/>
<path d="M131.161 106.639H127.609C127.329 106.639 127.102 106.867 127.102 107.147V109.273C127.102 109.553 127.329 109.781 127.609 109.781H131.161C131.441 109.781 131.668 109.553 131.668 109.273V107.147C131.668 106.867 131.441 106.639 131.161 106.639Z" stroke="#F0004F" stroke-width="0.906069" stroke-miterlimit="10"/>
<path d="M40.7765 118.829C39.206 118.829 37.9375 117.561 37.9375 115.99V103.571C37.9375 102 39.206 100.732 40.7765 100.732" stroke="white" stroke-width="0.906069" stroke-linecap="round" stroke-linejoin="round"/>
<path d="M55.5664 118.829C57.1369 118.829 58.4054 117.561 58.4054 115.99V103.571C58.4054 102 57.1369 100.732 55.5664 100.732" stroke="white" stroke-width="0.906069" stroke-linecap="round" stroke-linejoin="round"/>
<path d="M45.194 104.9C45.194 103.652 44.1826 102.641 42.9349 102.641C41.6872 102.641 40.6758 103.652 40.6758 104.9V106.615C40.6758 107.863 41.6872 108.874 42.9349 108.874C44.1826 108.874 45.194 107.863 45.194 106.615V104.9Z" stroke="white" stroke-width="0.906069" stroke-linecap="round" stroke-linejoin="round"/>
<path d="M47.2344 102.641V108.874" stroke="white" stroke-width="0.906069" stroke-linecap="round" stroke-linejoin="round"/>
<path d="M53.2227 110.747V116.981" stroke="white" stroke-width="0.906069" stroke-linecap="round" stroke-linejoin="round"/>
<path d="M55.6562 110.747V116.981" stroke="white" stroke-width="0.906069" stroke-linecap="round" stroke-linejoin="round"/>
<path d="M53.6042 104.9C53.6042 103.652 52.5928 102.641 51.3451 102.641C50.0974 102.641 49.0859 103.652 49.0859 104.9V106.615C49.0859 107.863 50.0974 108.874 51.3451 108.874C52.5928 108.874 53.6042 107.863 53.6042 106.615V104.9Z" stroke="white" stroke-width="0.906069" stroke-linecap="round" stroke-linejoin="round"/>
<path d="M55.6562 102.641V108.874" stroke="white" stroke-width="0.906069" stroke-linecap="round" stroke-linejoin="round"/>
<path d="M51.2487 113.006C51.2487 111.758 50.2373 110.747 48.9896 110.747C47.7419 110.747 46.7305 111.758 46.7305 113.006V114.721C46.7305 115.969 47.7419 116.981 48.9896 116.981C50.2373 116.981 51.2487 115.969 51.2487 114.721V113.006Z" stroke="white" stroke-width="0.906069" stroke-linecap="round" stroke-linejoin="round"/>
<path d="M45.194 113.006C45.194 111.758 44.1826 110.747 42.9349 110.747C41.6872 110.747 40.6758 111.758 40.6758 113.006V114.721C40.6758 115.969 41.6872 116.981 42.9349 116.981C44.1826 116.981 45.194 115.969 45.194 114.721V113.006Z" stroke="white" stroke-width="0.906069" stroke-linecap="round" stroke-linejoin="round"/>
</g>
<defs>
<linearGradient id="paint0_linear_2118_2030" x1="154.275" y1="66.1712" x2="37.2827" y2="79.3367" gradientUnits="userSpaceOnUse">
<stop stop-color="#2F3237"/>
<stop offset="0.19" stop-color="#2F3237" stop-opacity="0.65"/>
<stop offset="0.46" stop-color="#2F3237" stop-opacity="0.29"/>
<stop offset="0.73" stop-color="#2F3237" stop-opacity="0.07"/>
<stop offset="1" stop-color="#2F3237" stop-opacity="0"/>
</linearGradient>
</defs>
</svg>
