<svg width="164" height="164" viewBox="0 0 164 164" fill="none" xmlns="http://www.w3.org/2000/svg">
<mask id="mask0_29_3526" style="mask-type:alpha" maskUnits="userSpaceOnUse" x="0" y="0" width="164" height="164">
<rect width="164" height="164" fill="white"/>
</mask>
<g mask="url(#mask0_29_3526)">
<path d="M81.57 143.14C115.574 143.14 143.14 115.574 143.14 81.57C143.14 47.5658 115.574 20 81.57 20C47.5658 20 20 47.5658 20 81.57C20 115.574 47.5658 143.14 81.57 143.14Z" fill="url(#paint0_linear_29_3526)"/>
<path d="M79.9583 128.28C106.866 128.28 128.678 106.467 128.678 79.56C128.678 52.6527 106.866 30.84 79.9583 30.84C53.051 30.84 31.2383 52.6527 31.2383 79.56C31.2383 106.467 53.051 128.28 79.9583 128.28Z" fill="url(#paint1_linear_29_3526)"/>
<path d="M78.3398 26.94C106.28 26.94 128.93 49.59 128.93 77.53C128.93 105.47 106.28 128.12 78.3398 128.12" stroke="white" stroke-width="0.5" stroke-miterlimit="10"/>
<path d="M33.6484 77.53C33.6484 52.85 53.6584 32.85 78.3284 32.85C102.998 32.85 123.008 52.86 123.008 77.53" stroke="#4060F8" stroke-width="0.53" stroke-miterlimit="10" stroke-linecap="round"/>
<path d="M78.3398 41.13C98.4398 41.13 114.74 57.43 114.74 77.53C114.74 97.63 98.4398 113.93 78.3398 113.93" stroke="#4060F8" stroke-width="0.53" stroke-miterlimit="10" stroke-linecap="round"/>
<path d="M123.02 78.7801C124.274 78.7801 125.29 77.7637 125.29 76.5101C125.29 75.2564 124.274 74.2401 123.02 74.2401C121.766 74.2401 120.75 75.2564 120.75 76.5101C120.75 77.7637 121.766 78.7801 123.02 78.7801Z" fill="#0B0D0F" stroke="#4060F8" stroke-width="0.53" stroke-miterlimit="10" stroke-linecap="round"/>
<path d="M78.8403 130.39C80.094 130.39 81.1103 129.374 81.1103 128.12C81.1103 126.866 80.094 125.85 78.8403 125.85C77.5866 125.85 76.5703 126.866 76.5703 128.12C76.5703 129.374 77.5866 130.39 78.8403 130.39Z" fill="#0B0D0F" stroke="#4060F8" stroke-width="1.06" stroke-miterlimit="10" stroke-linecap="round"/>
<path d="M122.268 71.58C123.24 71.58 124.028 70.792 124.028 69.82C124.028 68.848 123.24 68.06 122.268 68.06C121.296 68.06 120.508 68.848 120.508 69.82C120.508 70.792 121.296 71.58 122.268 71.58Z" fill="#0B0D0F" stroke="white" stroke-width="0.53" stroke-miterlimit="10" stroke-linecap="round"/>
<path d="M121.059 65.86C121.799 65.86 122.399 65.2601 122.399 64.52C122.399 63.7799 121.799 63.18 121.059 63.18C120.319 63.18 119.719 63.7799 119.719 64.52C119.719 65.2601 120.319 65.86 121.059 65.86Z" fill="#0B0D0F" stroke="white" stroke-width="0.53" stroke-miterlimit="10" stroke-linecap="round"/>
<path d="M33.688 78.74C34.9417 78.74 35.958 77.7237 35.958 76.47C35.958 75.2163 34.9417 74.2 33.688 74.2C32.4343 74.2 31.418 75.2163 31.418 76.47C31.418 77.7237 32.4343 78.74 33.688 78.74Z" fill="#0B0D0F" stroke="white" stroke-width="0.53" stroke-miterlimit="10" stroke-linecap="round"/>
<path d="M34.4397 71.54C35.4117 71.54 36.1997 70.752 36.1997 69.78C36.1997 68.808 35.4117 68.02 34.4397 68.02C33.4677 68.02 32.6797 68.808 32.6797 69.78C32.6797 70.752 33.4677 71.54 34.4397 71.54Z" fill="#0B0D0F" stroke="#4060F8" stroke-width="0.53" stroke-miterlimit="10" stroke-linecap="round"/>
<path d="M35.6408 65.82C36.3808 65.82 36.9808 65.2201 36.9808 64.48C36.9808 63.7399 36.3808 63.14 35.6408 63.14C34.9007 63.14 34.3008 63.7399 34.3008 64.48C34.3008 65.2201 34.9007 65.82 35.6408 65.82Z" fill="#0B0D0F" stroke="#4060F8" stroke-width="0.53" stroke-miterlimit="10" stroke-linecap="round"/>
<path d="M80.1098 29.36C81.3635 29.36 82.3798 28.3437 82.3798 27.09C82.3798 25.8363 81.3635 24.82 80.1098 24.82C78.8562 24.82 77.8398 25.8363 77.8398 27.09C77.8398 28.3437 78.8562 29.36 80.1098 29.36Z" fill="#0B0D0F" stroke="#4060F8" stroke-width="0.53" stroke-miterlimit="10" stroke-linecap="round"/>
<path d="M86.7991 29.6C87.7711 29.6 88.5591 28.812 88.5591 27.84C88.5591 26.868 87.7711 26.08 86.7991 26.08C85.827 26.08 85.0391 26.868 85.0391 27.84C85.0391 28.812 85.827 29.6 86.7991 29.6Z" fill="#0B0D0F" stroke="#4060F8" stroke-width="0.53" stroke-miterlimit="10" stroke-linecap="round"/>
<path d="M92.0978 30.39C92.8379 30.39 93.4378 29.7901 93.4378 29.05C93.4378 28.31 92.8379 27.71 92.0978 27.71C91.3578 27.71 90.7578 28.31 90.7578 29.05C90.7578 29.7901 91.3578 30.39 92.0978 30.39Z" fill="#0B0D0F" stroke="white" stroke-width="0.53" stroke-miterlimit="10" stroke-linecap="round"/>
<path d="M81.2702 97.46V99.44C81.2702 102.82 78.5302 105.56 75.1502 105.56H55.9102V97.47C56.9902 98.1 58.2802 98.23 59.5402 97.8C60.8002 97.37 61.8402 96.29 62.2102 94.99C63.0602 92.05 60.8602 89.37 58.0502 89.37C57.3002 89.37 56.5702 89.57 55.9102 89.95V81.86H65.3402C65.3902 81.86 65.4402 81.84 65.4802 81.82C65.4902 81.81 65.5002 81.81 65.5102 81.8C65.5402 81.78 65.5602 81.75 65.5902 81.71C65.5902 81.7 65.6002 81.7 65.6002 81.7C65.6002 81.7 65.6302 81.61 65.6302 81.57V81.55C65.6302 81.55 65.6302 81.53 65.6202 81.52C65.6102 81.48 65.6002 81.44 65.5802 81.41C65.5802 81.41 65.5768 81.4034 65.5702 81.39C65.0102 80.65 64.7502 79.74 64.8302 78.78C64.9702 77.17 66.2002 75.78 67.7802 75.46C70.2102 74.96 72.3402 76.8 72.3402 79.14C72.3402 79.97 72.0802 80.75 71.5902 81.39C71.5902 81.39 71.5868 81.3967 71.5802 81.41C71.5802 81.41 71.5502 81.48 71.5402 81.52C71.5402 81.53 71.5302 81.54 71.5302 81.55C71.5302 81.6 71.5402 81.65 71.5602 81.68L71.5702 81.7C71.5902 81.73 71.6102 81.77 71.6502 81.79C71.6602 81.8 71.6702 81.8 71.6802 81.81C71.7202 81.83 71.7702 81.85 71.8202 81.85H81.2502V89.96H81.2702V97.49V97.46Z" fill="#0B0D0F" stroke="#FF842A" stroke-width="0.75" stroke-miterlimit="10" stroke-linecap="round"/>
<path d="M72.38 47.22H75.03C78.48 47.22 81.27 50.02 81.27 53.46V70.94H72.38C72.94 69.96 73.08 68.79 72.79 67.64C72.45 66.27 71.38 65.13 70.03 64.7C67.03 63.73 64.25 65.95 64.25 68.81C64.25 69.58 64.45 70.31 64.81 70.94H55.92V62.32C55.92 62.21 55.85 62.11 55.76 62.06C55.67 62.01 55.54 62.03 55.45 62.09C54.71 62.65 53.8 62.91 52.84 62.83C51.23 62.69 49.84 61.46 49.52 59.88C49.02 57.45 50.86 55.32 53.2 55.32C54.03 55.32 54.81 55.58 55.45 56.07C55.54 56.14 55.66 56.15 55.76 56.1C55.86 56.05 55.92 55.95 55.92 55.84V47.21H72.38V47.22Z" fill="#FF842A"/>
<path d="M45.2083 96.91V105.55H27.5383C23.9183 105.55 20.9883 102.62 20.9883 99V81.82H29.8783C29.3183 82.8 29.1783 83.97 29.4683 85.12C29.8083 86.49 30.8783 87.63 32.2283 88.06C35.2283 89.03 38.0083 86.81 38.0083 83.95C38.0083 83.18 37.8083 82.45 37.4483 81.82H45.2083V90.46C45.2083 90.57 45.2783 90.67 45.3683 90.72C45.4683 90.76 45.5883 90.76 45.6783 90.69C46.3483 90.19 47.1283 89.92 47.9283 89.92C50.3183 89.92 52.1783 92.14 51.5783 94.63C51.2683 95.89 50.2683 96.93 49.0183 97.29C47.7683 97.65 46.6383 97.41 45.6783 96.68C45.5883 96.6 45.4683 96.59 45.3683 96.64C45.2683 96.69 45.2083 96.79 45.2083 96.9" fill="#0B0D0F"/>
<path d="M45.2083 96.91V105.55H27.5383C23.9183 105.55 20.9883 102.62 20.9883 99V81.82H29.8783C29.3183 82.8 29.1783 83.97 29.4683 85.12C29.8083 86.49 30.8783 87.63 32.2283 88.06C35.2283 89.03 38.0083 86.81 38.0083 83.95C38.0083 83.18 37.8083 82.45 37.4483 81.82H45.2083V90.46C45.2083 90.57 45.2783 90.67 45.3683 90.72C45.4683 90.76 45.5883 90.76 45.6783 90.69C46.3483 90.19 47.1283 89.92 47.9283 89.92C50.3183 89.92 52.1783 92.14 51.5783 94.63C51.2683 95.89 50.2683 96.93 49.0183 97.29C47.7683 97.65 46.6383 97.41 45.6783 96.68C45.5883 96.6 45.4683 96.59 45.3683 96.64C45.2683 96.69 45.2083 96.79 45.2083 96.9" stroke="#FF842A" stroke-width="0.75" stroke-miterlimit="10" stroke-linecap="round"/>
</g>
<defs>
<linearGradient id="paint0_linear_29_3526" x1="42.69" y1="18.57" x2="107.37" y2="123.39" gradientUnits="userSpaceOnUse">
<stop stop-color="#2F3237"/>
<stop offset="0.19" stop-color="#2F3237" stop-opacity="0.65"/>
<stop offset="0.46" stop-color="#2F3237" stop-opacity="0.29"/>
<stop offset="0.73" stop-color="#2F3237" stop-opacity="0.07"/>
<stop offset="1" stop-color="#2F3237" stop-opacity="0"/>
</linearGradient>
<linearGradient id="paint1_linear_29_3526" x1="55.2628" y1="132.763" x2="96.424" y2="44.4214" gradientUnits="userSpaceOnUse">
<stop stop-color="#2F3237"/>
<stop offset="0.19" stop-color="#2F3237" stop-opacity="0.65"/>
<stop offset="0.46" stop-color="#2F3237" stop-opacity="0.29"/>
<stop offset="0.73" stop-color="#2F3237" stop-opacity="0.07"/>
<stop offset="1" stop-color="#2F3237" stop-opacity="0"/>
</linearGradient>
</defs>
</svg>
